<?xml version='1.0' encoding='UTF-8' standalone='no'?>
<svg xmlns="http://www.w3.org/2000/svg" baseProfile="tiny" xmlns:inkscape="http://www.inkscape.org/namespaces/inkscape" version="1.2" xmlns:svg="http://www.w3.org/2000/svg" xmlns:rdf="http://www.w3.org/1999/02/22-rdf-syntax-ns#" xmlns:freecad="http://www.freecad.org/wiki/index.php?title=Svg_Namespace" width="800mm" height="600mm" xmlns:dc="http://purl.org/dc/elements/1.1/" viewBox="0 0 8000 6000" xmlns:xlink="http://www.w3.org/1999/xlink" xmlns:cc="http://creativecommons.org/ns#" xmlns:sodipodi="http://sodipodi.sourceforge.net/DTD/sodipodi-0.dtd">
 <title>FreeCAD SVG Export</title>
 <desc>Drawing page: Page exported from FreeCAD document: Pocket_SDVX_Pico_CASE_Makoto</desc>
 <defs/>
 <g inkscape:label="TechDraw" id="Page" inkscape:groupmode="layer">
  <g transform="scale(10.000000, 10.000000)" id="80x60_Landscape_blank.svg" style="stroke: none;">
   <defs id="defs1"/>
   <sodipodi:namedview inkscape:deskcolor="#d1d1d1" inkscape:cx="2248.6782" bordercolor="#666666" inkscape:document-units="mm" inkscape:window-height="1045" inkscape:current-layer="svg2" inkscape:pageopacity="0.0" inkscape:window-x="0" inkscape:window-maximized="1" pagecolor="#ffffff" id="namedview1" inkscape:window-width="1920" inkscape:window-y="1" borderopacity="1.0" inkscape:zoom="0.26615636" inkscape:showpageshadow="2" inkscape:pagecheckerboard="0" inkscape:cy="1589.2913"/>
   <metadata id="metadata8">
    <rdf:RDF>
     <cc:Work rdf:about="">
      <dc:format>image/svg+xml</dc:format>
      <dc:type rdf:resource="http://purl.org/dc/dcmitype/StillImage"/>
     </cc:Work>
    </rdf:RDF>
   </metadata>
  </g>
  <g stroke-linecap="square" stroke-width="1" stroke-linejoin="bevel" fill="none" id="DrawingContent" stroke="black" fill-rule="evenodd">
   <g transform="matrix(1,0,0,1,95.5002,2354.98)" font-weight="400" font-family="Sans Serif" font-style="normal" fill-opacity="0" fill="#000000" stroke="none" font-size="31.75">
    <path vector-effect="non-scaling-stroke" d="M-50,50 L-50,-50 L50,-50 L50,50 L-50,50" fill-rule="evenodd"/>
   </g>
   <g transform="matrix(1,0,0,1,95.5002,2354.98)" font-weight="400" stroke-linecap="round" font-family="Sans Serif" font-style="normal" stroke-width="2.5" stroke-linejoin="bevel" stroke-opacity="1" fill="none" stroke="#ff0000" font-size="31.75">
    <path vector-effect="none" d="M-50,50 L-50,-50" fill-rule="evenodd"/>
   </g>
   <g transform="matrix(1,0,0,1,95.5002,2354.98)" font-weight="400" stroke-linecap="round" font-family="Sans Serif" font-style="normal" stroke-width="2.5" stroke-linejoin="bevel" stroke-opacity="1" fill="none" stroke="#ff0000" font-size="31.75">
    <path vector-effect="none" d="M50,50 L50,-50" fill-rule="evenodd"/>
   </g>
   <g transform="matrix(1,0,0,1,95.5002,2354.98)" font-weight="400" stroke-linecap="round" font-family="Sans Serif" font-style="normal" stroke-width="2.5" stroke-linejoin="bevel" stroke-opacity="1" fill="none" stroke="#ff0000" font-size="31.75">
    <path vector-effect="none" d="M-50,50 L50,50" fill-rule="evenodd"/>
   </g>
   <g transform="matrix(1,0,0,1,95.5002,2354.98)" font-weight="400" stroke-linecap="round" font-family="Sans Serif" font-style="normal" stroke-width="2.5" stroke-linejoin="bevel" stroke-opacity="1" fill="none" stroke="#ff0000" font-size="31.75">
    <path vector-effect="none" d="M-50,-50 L50,-50" fill-rule="evenodd"/>
   </g>
   <g transform="matrix(1,0,0,1,3425.13,1170.97)" font-weight="400" font-family="Sans Serif" font-style="normal" fill-opacity="0" fill="#000000" stroke="none" font-size="31.75">
    <path vector-effect="non-scaling-stroke" d="M-658.4,-1037.3 C-658.4,-1074.58 -628.179,-1104.8 -590.9,-1104.8 L590.9,-1104.8 C628.179,-1104.8 658.4,-1074.58 658.4,-1037.3 L658.4,1037.3 C658.4,1074.58 628.179,1104.8 590.9,1104.8 L-590.9,1104.8 C-628.179,1104.8 -658.4,1074.58 -658.4,1037.3 L-658.4,-1037.3" fill-rule="evenodd"/>
   </g>
   <g transform="matrix(1,0,0,1,3425.13,1170.97)" font-weight="400" font-family="Sans Serif" font-style="normal" fill-opacity="0" fill="#000000" stroke="none" font-size="31.75">
    <path vector-effect="non-scaling-stroke" d="M-289,-200 L-189,-200 L-189,-285 L-289,-285 L-289,-200" fill-rule="evenodd"/>
   </g>
   <g transform="matrix(1,0,0,1,3425.13,1170.97)" font-weight="400" font-family="Sans Serif" font-style="normal" fill-opacity="0" fill="#000000" stroke="none" font-size="31.75">
    <path vector-effect="non-scaling-stroke" d="M-506,972.5 C-506,983.546 -514.954,992.5 -526,992.5 C-537.046,992.5 -546,983.546 -546,972.5 C-546,961.454 -537.046,952.5 -526,952.5 C-514.954,952.5 -506,961.454 -506,972.5 " fill-rule="evenodd"/>
   </g>
   <g transform="matrix(1,0,0,1,3425.13,1170.97)" font-weight="400" font-family="Sans Serif" font-style="normal" fill-opacity="0" fill="#000000" stroke="none" font-size="31.75">
    <path vector-effect="non-scaling-stroke" d="M546,-972.5 C546,-961.454 537.046,-952.5 526,-952.5 C514.954,-952.5 506,-961.454 506,-972.5 C506,-983.546 514.954,-992.5 526,-992.5 C537.046,-992.5 546,-983.546 546,-972.5 " fill-rule="evenodd"/>
   </g>
   <g transform="matrix(1,0,0,1,3425.13,1170.97)" font-weight="400" font-family="Sans Serif" font-style="normal" fill-opacity="0" fill="#000000" stroke="none" font-size="31.75">
    <path vector-effect="non-scaling-stroke" d="M-255.7,-136.5 C-255.7,-125.454 -264.654,-116.5 -275.7,-116.5 C-286.746,-116.5 -295.7,-125.454 -295.7,-136.5 C-295.7,-147.546 -286.746,-156.5 -275.7,-156.5 C-264.654,-156.5 -255.7,-147.546 -255.7,-136.5 " fill-rule="evenodd"/>
   </g>
   <g transform="matrix(1,0,0,1,3425.13,1170.97)" font-weight="400" font-family="Sans Serif" font-style="normal" fill-opacity="0" fill="#000000" stroke="none" font-size="31.75">
    <path vector-effect="non-scaling-stroke" d="M-506,-972.5 C-506,-961.454 -514.954,-952.5 -526,-952.5 C-537.046,-952.5 -546,-961.454 -546,-972.5 C-546,-983.546 -537.046,-992.5 -526,-992.5 C-514.954,-992.5 -506,-983.546 -506,-972.5 " fill-rule="evenodd"/>
   </g>
   <g transform="matrix(1,0,0,1,3425.13,1170.97)" font-weight="400" font-family="Sans Serif" font-style="normal" fill-opacity="0" fill="#000000" stroke="none" font-size="31.75">
    <path vector-effect="non-scaling-stroke" d="M546,972.5 C546,983.546 537.046,992.5 526,992.5 C514.954,992.5 506,983.546 506,972.5 C506,961.454 514.954,952.5 526,952.5 C537.046,952.5 546,961.454 546,972.5 " fill-rule="evenodd"/>
   </g>
   <g transform="matrix(1,0,0,1,3425.13,1170.97)" font-weight="400" font-family="Sans Serif" font-style="normal" fill-opacity="0" fill="#000000" stroke="none" font-size="31.75">
    <path vector-effect="non-scaling-stroke" d="M607.5,-1037.8 C607.5,-1029.52 600.784,-1022.8 592.5,-1022.8 C584.216,-1022.8 577.5,-1029.52 577.5,-1037.8 C577.5,-1046.08 584.216,-1052.8 592.5,-1052.8 C600.784,-1052.8 607.5,-1046.08 607.5,-1037.8 " fill-rule="evenodd"/>
   </g>
   <g transform="matrix(1,0,0,1,3425.13,1170.97)" font-weight="400" font-family="Sans Serif" font-style="normal" fill-opacity="0" fill="#000000" stroke="none" font-size="31.75">
    <path vector-effect="non-scaling-stroke" d="M-577.5,-1037.8 C-577.5,-1029.52 -584.216,-1022.8 -592.5,-1022.8 C-600.784,-1022.8 -607.5,-1029.52 -607.5,-1037.8 C-607.5,-1046.08 -600.784,-1052.8 -592.5,-1052.8 C-584.216,-1052.8 -577.5,-1046.08 -577.5,-1037.8 " fill-rule="evenodd"/>
   </g>
   <g transform="matrix(1,0,0,1,3425.13,1170.97)" font-weight="400" font-family="Sans Serif" font-style="normal" fill-opacity="0" fill="#000000" stroke="none" font-size="31.75">
    <path vector-effect="non-scaling-stroke" d="M607.5,1037.8 C607.5,1046.08 600.784,1052.8 592.5,1052.8 C584.216,1052.8 577.5,1046.08 577.5,1037.8 C577.5,1029.52 584.216,1022.8 592.5,1022.8 C600.784,1022.8 607.5,1029.52 607.5,1037.8 " fill-rule="evenodd"/>
   </g>
   <g transform="matrix(1,0,0,1,3425.13,1170.97)" font-weight="400" font-family="Sans Serif" font-style="normal" fill-opacity="0" fill="#000000" stroke="none" font-size="31.75">
    <path vector-effect="non-scaling-stroke" d="M-577.5,1037.8 C-577.5,1046.08 -584.216,1052.8 -592.5,1052.8 C-600.784,1052.8 -607.5,1046.08 -607.5,1037.8 C-607.5,1029.52 -600.784,1022.8 -592.5,1022.8 C-584.216,1022.8 -577.5,1029.52 -577.5,1037.8 " fill-rule="evenodd"/>
   </g>
   <g transform="matrix(1,0,0,1,3425.13,1170.97)" font-weight="400" stroke-linecap="round" font-family="Sans Serif" font-style="normal" stroke-width="2.5" stroke-linejoin="bevel" stroke-opacity="1" fill="none" stroke="#ff0000" font-size="31.75">
    <path vector-effect="none" d="M-658.4,-1037.3 C-658.4,-1074.58 -628.179,-1104.8 -590.9,-1104.8 " fill-rule="evenodd"/>
   </g>
   <g transform="matrix(1,0,0,1,3425.13,1170.97)" font-weight="400" stroke-linecap="round" font-family="Sans Serif" font-style="normal" stroke-width="2.5" stroke-linejoin="bevel" stroke-opacity="1" fill="none" stroke="#ff0000" font-size="31.75">
    <path vector-effect="none" d="M-658.4,-1037.3 L-658.4,1037.3" fill-rule="evenodd"/>
   </g>
   <g transform="matrix(1,0,0,1,3425.13,1170.97)" font-weight="400" stroke-linecap="round" font-family="Sans Serif" font-style="normal" stroke-width="2.5" stroke-linejoin="bevel" stroke-opacity="1" fill="none" stroke="#ff0000" font-size="31.75">
    <path vector-effect="none" d="M590.9,-1104.8 L-590.9,-1104.8" fill-rule="evenodd"/>
   </g>
   <g transform="matrix(1,0,0,1,3425.13,1170.97)" font-weight="400" stroke-linecap="round" font-family="Sans Serif" font-style="normal" stroke-width="2.5" stroke-linejoin="bevel" stroke-opacity="1" fill="none" stroke="#ff0000" font-size="31.75">
    <path vector-effect="none" d="M-590.9,1104.8 C-628.179,1104.8 -658.4,1074.58 -658.4,1037.3 " fill-rule="evenodd"/>
   </g>
   <g transform="matrix(1,0,0,1,3425.13,1170.97)" font-weight="400" stroke-linecap="round" font-family="Sans Serif" font-style="normal" stroke-width="2.5" stroke-linejoin="bevel" stroke-opacity="1" fill="none" stroke="#ff0000" font-size="31.75">
    <path vector-effect="none" d="M590.9,-1104.8 C628.179,-1104.8 658.4,-1074.58 658.4,-1037.3 " fill-rule="evenodd"/>
   </g>
   <g transform="matrix(1,0,0,1,3425.13,1170.97)" font-weight="400" stroke-linecap="round" font-family="Sans Serif" font-style="normal" stroke-width="2.5" stroke-linejoin="bevel" stroke-opacity="1" fill="none" stroke="#ff0000" font-size="31.75">
    <path vector-effect="none" d="M-590.9,1104.8 L590.9,1104.8" fill-rule="evenodd"/>
   </g>
   <g transform="matrix(1,0,0,1,3425.13,1170.97)" font-weight="400" stroke-linecap="round" font-family="Sans Serif" font-style="normal" stroke-width="2.5" stroke-linejoin="bevel" stroke-opacity="1" fill="none" stroke="#ff0000" font-size="31.75">
    <path vector-effect="none" d="M658.4,1037.3 L658.4,-1037.3" fill-rule="evenodd"/>
   </g>
   <g transform="matrix(1,0,0,1,3425.13,1170.97)" font-weight="400" stroke-linecap="round" font-family="Sans Serif" font-style="normal" stroke-width="2.5" stroke-linejoin="bevel" stroke-opacity="1" fill="none" stroke="#ff0000" font-size="31.75">
    <path vector-effect="none" d="M658.4,1037.3 C658.4,1074.58 628.179,1104.8 590.9,1104.8 " fill-rule="evenodd"/>
   </g>
   <g transform="matrix(1,0,0,1,3425.13,1170.97)" font-weight="400" stroke-linecap="round" font-family="Sans Serif" font-style="normal" stroke-width="2.5" stroke-linejoin="bevel" stroke-opacity="1" fill="none" stroke="#ff0000" font-size="31.75">
    <path vector-effect="none" d="M607.5,-1037.8 C607.5,-1029.52 600.784,-1022.8 592.5,-1022.8 C584.216,-1022.8 577.5,-1029.52 577.5,-1037.8 C577.5,-1046.08 584.216,-1052.8 592.5,-1052.8 C600.784,-1052.8 607.5,-1046.08 607.5,-1037.8 " fill-rule="evenodd"/>
   </g>
   <g transform="matrix(1,0,0,1,3425.13,1170.97)" font-weight="400" stroke-linecap="round" font-family="Sans Serif" font-style="normal" stroke-width="2.5" stroke-linejoin="bevel" stroke-opacity="1" fill="none" stroke="#ff0000" font-size="31.75">
    <path vector-effect="none" d="M546,-972.5 C546,-961.454 537.046,-952.5 526,-952.5 C514.954,-952.5 506,-961.454 506,-972.5 C506,-983.546 514.954,-992.5 526,-992.5 C537.046,-992.5 546,-983.546 546,-972.5 " fill-rule="evenodd"/>
   </g>
   <g transform="matrix(1,0,0,1,3425.13,1170.97)" font-weight="400" stroke-linecap="round" font-family="Sans Serif" font-style="normal" stroke-width="2.5" stroke-linejoin="bevel" stroke-opacity="1" fill="none" stroke="#ff0000" font-size="31.75">
    <path vector-effect="none" d="M607.5,1037.8 C607.5,1046.08 600.784,1052.8 592.5,1052.8 C584.216,1052.8 577.5,1046.08 577.5,1037.8 C577.5,1029.52 584.216,1022.8 592.5,1022.8 C600.784,1022.8 607.5,1029.52 607.5,1037.8 " fill-rule="evenodd"/>
   </g>
   <g transform="matrix(1,0,0,1,3425.13,1170.97)" font-weight="400" stroke-linecap="round" font-family="Sans Serif" font-style="normal" stroke-width="2.5" stroke-linejoin="bevel" stroke-opacity="1" fill="none" stroke="#ff0000" font-size="31.75">
    <path vector-effect="none" d="M546,972.5 C546,983.546 537.046,992.5 526,992.5 C514.954,992.5 506,983.546 506,972.5 C506,961.454 514.954,952.5 526,952.5 C537.046,952.5 546,961.454 546,972.5 " fill-rule="evenodd"/>
   </g>
   <g transform="matrix(1,0,0,1,3425.13,1170.97)" font-weight="400" stroke-linecap="round" font-family="Sans Serif" font-style="normal" stroke-width="2.5" stroke-linejoin="bevel" stroke-opacity="1" fill="none" stroke="#ff0000" font-size="31.75">
    <path vector-effect="none" d="M-289,-200 L-189,-200" fill-rule="evenodd"/>
   </g>
   <g transform="matrix(1,0,0,1,3425.13,1170.97)" font-weight="400" stroke-linecap="round" font-family="Sans Serif" font-style="normal" stroke-width="2.5" stroke-linejoin="bevel" stroke-opacity="1" fill="none" stroke="#ff0000" font-size="31.75">
    <path vector-effect="none" d="M-289,-285 L-289,-200" fill-rule="evenodd"/>
   </g>
   <g transform="matrix(1,0,0,1,3425.13,1170.97)" font-weight="400" stroke-linecap="round" font-family="Sans Serif" font-style="normal" stroke-width="2.5" stroke-linejoin="bevel" stroke-opacity="1" fill="none" stroke="#ff0000" font-size="31.75">
    <path vector-effect="none" d="M-189,-285 L-289,-285" fill-rule="evenodd"/>
   </g>
   <g transform="matrix(1,0,0,1,3425.13,1170.97)" font-weight="400" stroke-linecap="round" font-family="Sans Serif" font-style="normal" stroke-width="2.5" stroke-linejoin="bevel" stroke-opacity="1" fill="none" stroke="#ff0000" font-size="31.75">
    <path vector-effect="none" d="M-189,-200 L-189,-285" fill-rule="evenodd"/>
   </g>
   <g transform="matrix(1,0,0,1,3425.13,1170.97)" font-weight="400" stroke-linecap="round" font-family="Sans Serif" font-style="normal" stroke-width="2.5" stroke-linejoin="bevel" stroke-opacity="1" fill="none" stroke="#ff0000" font-size="31.75">
    <path vector-effect="none" d="M-255.7,-136.5 C-255.7,-125.454 -264.654,-116.5 -275.7,-116.5 C-286.746,-116.5 -295.7,-125.454 -295.7,-136.5 C-295.7,-147.546 -286.746,-156.5 -275.7,-156.5 C-264.654,-156.5 -255.7,-147.546 -255.7,-136.5 " fill-rule="evenodd"/>
   </g>
   <g transform="matrix(1,0,0,1,3425.13,1170.97)" font-weight="400" stroke-linecap="round" font-family="Sans Serif" font-style="normal" stroke-width="2.5" stroke-linejoin="bevel" stroke-opacity="1" fill="none" stroke="#ff0000" font-size="31.75">
    <path vector-effect="none" d="M-506,-972.5 C-506,-961.454 -514.954,-952.5 -526,-952.5 C-537.046,-952.5 -546,-961.454 -546,-972.5 C-546,-983.546 -537.046,-992.5 -526,-992.5 C-514.954,-992.5 -506,-983.546 -506,-972.5 " fill-rule="evenodd"/>
   </g>
   <g transform="matrix(1,0,0,1,3425.13,1170.97)" font-weight="400" stroke-linecap="round" font-family="Sans Serif" font-style="normal" stroke-width="2.5" stroke-linejoin="bevel" stroke-opacity="1" fill="none" stroke="#ff0000" font-size="31.75">
    <path vector-effect="none" d="M-577.5,-1037.8 C-577.5,-1029.52 -584.216,-1022.8 -592.5,-1022.8 C-600.784,-1022.8 -607.5,-1029.52 -607.5,-1037.8 C-607.5,-1046.08 -600.784,-1052.8 -592.5,-1052.8 C-584.216,-1052.8 -577.5,-1046.08 -577.5,-1037.8 " fill-rule="evenodd"/>
   </g>
   <g transform="matrix(1,0,0,1,3425.13,1170.97)" font-weight="400" stroke-linecap="round" font-family="Sans Serif" font-style="normal" stroke-width="2.5" stroke-linejoin="bevel" stroke-opacity="1" fill="none" stroke="#ff0000" font-size="31.75">
    <path vector-effect="none" d="M-506,972.5 C-506,983.546 -514.954,992.5 -526,992.5 C-537.046,992.5 -546,983.546 -546,972.5 C-546,961.454 -537.046,952.5 -526,952.5 C-514.954,952.5 -506,961.454 -506,972.5 " fill-rule="evenodd"/>
   </g>
   <g transform="matrix(1,0,0,1,3425.13,1170.97)" font-weight="400" stroke-linecap="round" font-family="Sans Serif" font-style="normal" stroke-width="2.5" stroke-linejoin="bevel" stroke-opacity="1" fill="none" stroke="#ff0000" font-size="31.75">
    <path vector-effect="none" d="M-577.5,1037.8 C-577.5,1046.08 -584.216,1052.8 -592.5,1052.8 C-600.784,1052.8 -607.5,1046.08 -607.5,1037.8 C-607.5,1029.52 -600.784,1022.8 -592.5,1022.8 C-584.216,1022.8 -577.5,1029.52 -577.5,1037.8 " fill-rule="evenodd"/>
   </g>
   <g transform="matrix(1,0,0,1,2074,1170.41)" font-weight="400" font-family="Sans Serif" font-style="normal" fill-opacity="0" fill="#000000" stroke="none" font-size="31.75">
    <path vector-effect="non-scaling-stroke" d="M-658.4,-1037.3 C-658.4,-1074.58 -628.179,-1104.8 -590.9,-1104.8 L590.9,-1104.8 C628.179,-1104.8 658.4,-1074.58 658.4,-1037.3 L658.4,1037.3 C658.4,1074.58 628.179,1104.8 590.9,1104.8 L-590.9,1104.8 C-628.179,1104.8 -658.4,1074.58 -658.4,1037.3 L-658.4,-1037.3" fill-rule="evenodd"/>
   </g>
   <g transform="matrix(1,0,0,1,2074,1170.41)" font-weight="400" font-family="Sans Serif" font-style="normal" fill-opacity="0" fill="#000000" stroke="none" font-size="31.75">
    <path vector-effect="non-scaling-stroke" d="M-289,-200 L-189,-200 L-189,-285 L-289,-285 L-289,-200" fill-rule="evenodd"/>
   </g>
   <g transform="matrix(1,0,0,1,2074,1170.41)" font-weight="400" font-family="Sans Serif" font-style="normal" fill-opacity="0" fill="#000000" stroke="none" font-size="31.75">
    <path vector-effect="non-scaling-stroke" d="M-506,972.5 C-506,983.546 -514.954,992.5 -526,992.5 C-537.046,992.5 -546,983.546 -546,972.5 C-546,961.454 -537.046,952.5 -526,952.5 C-514.954,952.5 -506,961.454 -506,972.5 " fill-rule="evenodd"/>
   </g>
   <g transform="matrix(1,0,0,1,2074,1170.41)" font-weight="400" font-family="Sans Serif" font-style="normal" fill-opacity="0" fill="#000000" stroke="none" font-size="31.75">
    <path vector-effect="non-scaling-stroke" d="M546,-972.5 C546,-961.454 537.046,-952.5 526,-952.5 C514.954,-952.5 506,-961.454 506,-972.5 C506,-983.546 514.954,-992.5 526,-992.5 C537.046,-992.5 546,-983.546 546,-972.5 " fill-rule="evenodd"/>
   </g>
   <g transform="matrix(1,0,0,1,2074,1170.41)" font-weight="400" font-family="Sans Serif" font-style="normal" fill-opacity="0" fill="#000000" stroke="none" font-size="31.75">
    <path vector-effect="non-scaling-stroke" d="M-255.7,-136.5 C-255.7,-125.454 -264.654,-116.5 -275.7,-116.5 C-286.746,-116.5 -295.7,-125.454 -295.7,-136.5 C-295.7,-147.546 -286.746,-156.5 -275.7,-156.5 C-264.654,-156.5 -255.7,-147.546 -255.7,-136.5 " fill-rule="evenodd"/>
   </g>
   <g transform="matrix(1,0,0,1,2074,1170.41)" font-weight="400" font-family="Sans Serif" font-style="normal" fill-opacity="0" fill="#000000" stroke="none" font-size="31.75">
    <path vector-effect="non-scaling-stroke" d="M-506,-972.5 C-506,-961.454 -514.954,-952.5 -526,-952.5 C-537.046,-952.5 -546,-961.454 -546,-972.5 C-546,-983.546 -537.046,-992.5 -526,-992.5 C-514.954,-992.5 -506,-983.546 -506,-972.5 " fill-rule="evenodd"/>
   </g>
   <g transform="matrix(1,0,0,1,2074,1170.41)" font-weight="400" font-family="Sans Serif" font-style="normal" fill-opacity="0" fill="#000000" stroke="none" font-size="31.75">
    <path vector-effect="non-scaling-stroke" d="M546,972.5 C546,983.546 537.046,992.5 526,992.5 C514.954,992.5 506,983.546 506,972.5 C506,961.454 514.954,952.5 526,952.5 C537.046,952.5 546,961.454 546,972.5 " fill-rule="evenodd"/>
   </g>
   <g transform="matrix(1,0,0,1,2074,1170.41)" font-weight="400" font-family="Sans Serif" font-style="normal" fill-opacity="0" fill="#000000" stroke="none" font-size="31.75">
    <path vector-effect="non-scaling-stroke" d="M607.5,-1037.8 C607.5,-1029.52 600.784,-1022.8 592.5,-1022.8 C584.216,-1022.8 577.5,-1029.52 577.5,-1037.8 C577.5,-1046.08 584.216,-1052.8 592.5,-1052.8 C600.784,-1052.8 607.5,-1046.08 607.5,-1037.8 " fill-rule="evenodd"/>
   </g>
   <g transform="matrix(1,0,0,1,2074,1170.41)" font-weight="400" font-family="Sans Serif" font-style="normal" fill-opacity="0" fill="#000000" stroke="none" font-size="31.75">
    <path vector-effect="non-scaling-stroke" d="M-577.5,-1037.8 C-577.5,-1029.52 -584.216,-1022.8 -592.5,-1022.8 C-600.784,-1022.8 -607.5,-1029.52 -607.5,-1037.8 C-607.5,-1046.08 -600.784,-1052.8 -592.5,-1052.8 C-584.216,-1052.8 -577.5,-1046.08 -577.5,-1037.8 " fill-rule="evenodd"/>
   </g>
   <g transform="matrix(1,0,0,1,2074,1170.41)" font-weight="400" font-family="Sans Serif" font-style="normal" fill-opacity="0" fill="#000000" stroke="none" font-size="31.75">
    <path vector-effect="non-scaling-stroke" d="M607.5,1037.8 C607.5,1046.08 600.784,1052.8 592.5,1052.8 C584.216,1052.8 577.5,1046.08 577.5,1037.8 C577.5,1029.52 584.216,1022.8 592.5,1022.8 C600.784,1022.8 607.5,1029.52 607.5,1037.8 " fill-rule="evenodd"/>
   </g>
   <g transform="matrix(1,0,0,1,2074,1170.41)" font-weight="400" font-family="Sans Serif" font-style="normal" fill-opacity="0" fill="#000000" stroke="none" font-size="31.75">
    <path vector-effect="non-scaling-stroke" d="M-577.5,1037.8 C-577.5,1046.08 -584.216,1052.8 -592.5,1052.8 C-600.784,1052.8 -607.5,1046.08 -607.5,1037.8 C-607.5,1029.52 -600.784,1022.8 -592.5,1022.8 C-584.216,1022.8 -577.5,1029.52 -577.5,1037.8 " fill-rule="evenodd"/>
   </g>
   <g transform="matrix(1,0,0,1,2074,1170.41)" font-weight="400" stroke-linecap="round" font-family="Sans Serif" font-style="normal" stroke-width="2.5" stroke-linejoin="bevel" stroke-opacity="1" fill="none" stroke="#ff0000" font-size="31.75">
    <path vector-effect="none" d="M-658.4,-1037.3 C-658.4,-1074.58 -628.179,-1104.8 -590.9,-1104.8 " fill-rule="evenodd"/>
   </g>
   <g transform="matrix(1,0,0,1,2074,1170.41)" font-weight="400" stroke-linecap="round" font-family="Sans Serif" font-style="normal" stroke-width="2.5" stroke-linejoin="bevel" stroke-opacity="1" fill="none" stroke="#ff0000" font-size="31.75">
    <path vector-effect="none" d="M-658.4,-1037.3 L-658.4,1037.3" fill-rule="evenodd"/>
   </g>
   <g transform="matrix(1,0,0,1,2074,1170.41)" font-weight="400" stroke-linecap="round" font-family="Sans Serif" font-style="normal" stroke-width="2.5" stroke-linejoin="bevel" stroke-opacity="1" fill="none" stroke="#ff0000" font-size="31.75">
    <path vector-effect="none" d="M590.9,-1104.8 L-590.9,-1104.8" fill-rule="evenodd"/>
   </g>
   <g transform="matrix(1,0,0,1,2074,1170.41)" font-weight="400" stroke-linecap="round" font-family="Sans Serif" font-style="normal" stroke-width="2.5" stroke-linejoin="bevel" stroke-opacity="1" fill="none" stroke="#ff0000" font-size="31.75">
    <path vector-effect="none" d="M-590.9,1104.8 C-628.179,1104.8 -658.4,1074.58 -658.4,1037.3 " fill-rule="evenodd"/>
   </g>
   <g transform="matrix(1,0,0,1,2074,1170.41)" font-weight="400" stroke-linecap="round" font-family="Sans Serif" font-style="normal" stroke-width="2.5" stroke-linejoin="bevel" stroke-opacity="1" fill="none" stroke="#ff0000" font-size="31.75">
    <path vector-effect="none" d="M590.9,-1104.8 C628.179,-1104.8 658.4,-1074.58 658.4,-1037.3 " fill-rule="evenodd"/>
   </g>
   <g transform="matrix(1,0,0,1,2074,1170.41)" font-weight="400" stroke-linecap="round" font-family="Sans Serif" font-style="normal" stroke-width="2.5" stroke-linejoin="bevel" stroke-opacity="1" fill="none" stroke="#ff0000" font-size="31.75">
    <path vector-effect="none" d="M-590.9,1104.8 L590.9,1104.8" fill-rule="evenodd"/>
   </g>
   <g transform="matrix(1,0,0,1,2074,1170.41)" font-weight="400" stroke-linecap="round" font-family="Sans Serif" font-style="normal" stroke-width="2.5" stroke-linejoin="bevel" stroke-opacity="1" fill="none" stroke="#ff0000" font-size="31.75">
    <path vector-effect="none" d="M658.4,1037.3 L658.4,-1037.3" fill-rule="evenodd"/>
   </g>
   <g transform="matrix(1,0,0,1,2074,1170.41)" font-weight="400" stroke-linecap="round" font-family="Sans Serif" font-style="normal" stroke-width="2.5" stroke-linejoin="bevel" stroke-opacity="1" fill="none" stroke="#ff0000" font-size="31.75">
    <path vector-effect="none" d="M658.4,1037.3 C658.4,1074.58 628.179,1104.8 590.9,1104.8 " fill-rule="evenodd"/>
   </g>
   <g transform="matrix(1,0,0,1,2074,1170.41)" font-weight="400" stroke-linecap="round" font-family="Sans Serif" font-style="normal" stroke-width="2.5" stroke-linejoin="bevel" stroke-opacity="1" fill="none" stroke="#ff0000" font-size="31.75">
    <path vector-effect="none" d="M607.5,-1037.8 C607.5,-1029.52 600.784,-1022.8 592.5,-1022.8 C584.216,-1022.8 577.5,-1029.52 577.5,-1037.8 C577.5,-1046.08 584.216,-1052.8 592.5,-1052.8 C600.784,-1052.8 607.5,-1046.08 607.5,-1037.8 " fill-rule="evenodd"/>
   </g>
   <g transform="matrix(1,0,0,1,2074,1170.41)" font-weight="400" stroke-linecap="round" font-family="Sans Serif" font-style="normal" stroke-width="2.5" stroke-linejoin="bevel" stroke-opacity="1" fill="none" stroke="#ff0000" font-size="31.75">
    <path vector-effect="none" d="M546,-972.5 C546,-961.454 537.046,-952.5 526,-952.5 C514.954,-952.5 506,-961.454 506,-972.5 C506,-983.546 514.954,-992.5 526,-992.5 C537.046,-992.5 546,-983.546 546,-972.5 " fill-rule="evenodd"/>
   </g>
   <g transform="matrix(1,0,0,1,2074,1170.41)" font-weight="400" stroke-linecap="round" font-family="Sans Serif" font-style="normal" stroke-width="2.5" stroke-linejoin="bevel" stroke-opacity="1" fill="none" stroke="#ff0000" font-size="31.75">
    <path vector-effect="none" d="M607.5,1037.8 C607.5,1046.08 600.784,1052.8 592.5,1052.8 C584.216,1052.8 577.5,1046.08 577.5,1037.8 C577.5,1029.52 584.216,1022.8 592.5,1022.8 C600.784,1022.8 607.5,1029.52 607.5,1037.8 " fill-rule="evenodd"/>
   </g>
   <g transform="matrix(1,0,0,1,2074,1170.41)" font-weight="400" stroke-linecap="round" font-family="Sans Serif" font-style="normal" stroke-width="2.5" stroke-linejoin="bevel" stroke-opacity="1" fill="none" stroke="#ff0000" font-size="31.75">
    <path vector-effect="none" d="M546,972.5 C546,983.546 537.046,992.5 526,992.5 C514.954,992.5 506,983.546 506,972.5 C506,961.454 514.954,952.5 526,952.5 C537.046,952.5 546,961.454 546,972.5 " fill-rule="evenodd"/>
   </g>
   <g transform="matrix(1,0,0,1,2074,1170.41)" font-weight="400" stroke-linecap="round" font-family="Sans Serif" font-style="normal" stroke-width="2.5" stroke-linejoin="bevel" stroke-opacity="1" fill="none" stroke="#ff0000" font-size="31.75">
    <path vector-effect="none" d="M-289,-200 L-189,-200" fill-rule="evenodd"/>
   </g>
   <g transform="matrix(1,0,0,1,2074,1170.41)" font-weight="400" stroke-linecap="round" font-family="Sans Serif" font-style="normal" stroke-width="2.5" stroke-linejoin="bevel" stroke-opacity="1" fill="none" stroke="#ff0000" font-size="31.75">
    <path vector-effect="none" d="M-289,-285 L-289,-200" fill-rule="evenodd"/>
   </g>
   <g transform="matrix(1,0,0,1,2074,1170.41)" font-weight="400" stroke-linecap="round" font-family="Sans Serif" font-style="normal" stroke-width="2.5" stroke-linejoin="bevel" stroke-opacity="1" fill="none" stroke="#ff0000" font-size="31.75">
    <path vector-effect="none" d="M-189,-285 L-289,-285" fill-rule="evenodd"/>
   </g>
   <g transform="matrix(1,0,0,1,2074,1170.41)" font-weight="400" stroke-linecap="round" font-family="Sans Serif" font-style="normal" stroke-width="2.5" stroke-linejoin="bevel" stroke-opacity="1" fill="none" stroke="#ff0000" font-size="31.75">
    <path vector-effect="none" d="M-189,-200 L-189,-285" fill-rule="evenodd"/>
   </g>
   <g transform="matrix(1,0,0,1,2074,1170.41)" font-weight="400" stroke-linecap="round" font-family="Sans Serif" font-style="normal" stroke-width="2.5" stroke-linejoin="bevel" stroke-opacity="1" fill="none" stroke="#ff0000" font-size="31.75">
    <path vector-effect="none" d="M-255.7,-136.5 C-255.7,-125.454 -264.654,-116.5 -275.7,-116.5 C-286.746,-116.5 -295.7,-125.454 -295.7,-136.5 C-295.7,-147.546 -286.746,-156.5 -275.7,-156.5 C-264.654,-156.5 -255.7,-147.546 -255.7,-136.5 " fill-rule="evenodd"/>
   </g>
   <g transform="matrix(1,0,0,1,2074,1170.41)" font-weight="400" stroke-linecap="round" font-family="Sans Serif" font-style="normal" stroke-width="2.5" stroke-linejoin="bevel" stroke-opacity="1" fill="none" stroke="#ff0000" font-size="31.75">
    <path vector-effect="none" d="M-506,-972.5 C-506,-961.454 -514.954,-952.5 -526,-952.5 C-537.046,-952.5 -546,-961.454 -546,-972.5 C-546,-983.546 -537.046,-992.5 -526,-992.5 C-514.954,-992.5 -506,-983.546 -506,-972.5 " fill-rule="evenodd"/>
   </g>
   <g transform="matrix(1,0,0,1,2074,1170.41)" font-weight="400" stroke-linecap="round" font-family="Sans Serif" font-style="normal" stroke-width="2.5" stroke-linejoin="bevel" stroke-opacity="1" fill="none" stroke="#ff0000" font-size="31.75">
    <path vector-effect="none" d="M-577.5,-1037.8 C-577.5,-1029.52 -584.216,-1022.8 -592.5,-1022.8 C-600.784,-1022.8 -607.5,-1029.52 -607.5,-1037.8 C-607.5,-1046.08 -600.784,-1052.8 -592.5,-1052.8 C-584.216,-1052.8 -577.5,-1046.08 -577.5,-1037.8 " fill-rule="evenodd"/>
   </g>
   <g transform="matrix(1,0,0,1,2074,1170.41)" font-weight="400" stroke-linecap="round" font-family="Sans Serif" font-style="normal" stroke-width="2.5" stroke-linejoin="bevel" stroke-opacity="1" fill="none" stroke="#ff0000" font-size="31.75">
    <path vector-effect="none" d="M-506,972.5 C-506,983.546 -514.954,992.5 -526,992.5 C-537.046,992.5 -546,983.546 -546,972.5 C-546,961.454 -537.046,952.5 -526,952.5 C-514.954,952.5 -506,961.454 -506,972.5 " fill-rule="evenodd"/>
   </g>
   <g transform="matrix(1,0,0,1,2074,1170.41)" font-weight="400" stroke-linecap="round" font-family="Sans Serif" font-style="normal" stroke-width="2.5" stroke-linejoin="bevel" stroke-opacity="1" fill="none" stroke="#ff0000" font-size="31.75">
    <path vector-effect="none" d="M-577.5,1037.8 C-577.5,1046.08 -584.216,1052.8 -592.5,1052.8 C-600.784,1052.8 -607.5,1046.08 -607.5,1037.8 C-607.5,1029.52 -600.784,1022.8 -592.5,1022.8 C-584.216,1022.8 -577.5,1029.52 -577.5,1037.8 " fill-rule="evenodd"/>
   </g>
   <g transform="matrix(1,0,0,1,730.193,1169.16)" font-weight="400" font-family="Sans Serif" font-style="normal" fill-opacity="0" fill="#000000" stroke="none" font-size="31.75">
    <path vector-effect="non-scaling-stroke" d="M-658.4,-1037.3 C-658.4,-1074.58 -628.179,-1104.8 -590.9,-1104.8 L590.9,-1104.8 C628.179,-1104.8 658.4,-1074.58 658.4,-1037.3 L658.4,1037.3 C658.4,1074.58 628.179,1104.8 590.9,1104.8 L-590.9,1104.8 C-628.179,1104.8 -658.4,1074.58 -658.4,1037.3 L-658.4,-1037.3" fill-rule="evenodd"/>
   </g>
   <g transform="matrix(1,0,0,1,730.193,1169.16)" font-weight="400" font-family="Sans Serif" font-style="normal" fill-opacity="0" fill="#000000" stroke="none" font-size="31.75">
    <path vector-effect="non-scaling-stroke" d="M-289,-200 L-189,-200 L-189,-285 L-289,-285 L-289,-200" fill-rule="evenodd"/>
   </g>
   <g transform="matrix(1,0,0,1,730.193,1169.16)" font-weight="400" font-family="Sans Serif" font-style="normal" fill-opacity="0" fill="#000000" stroke="none" font-size="31.75">
    <path vector-effect="non-scaling-stroke" d="M-506,972.5 C-506,983.546 -514.954,992.5 -526,992.5 C-537.046,992.5 -546,983.546 -546,972.5 C-546,961.454 -537.046,952.5 -526,952.5 C-514.954,952.5 -506,961.454 -506,972.5 " fill-rule="evenodd"/>
   </g>
   <g transform="matrix(1,0,0,1,730.193,1169.16)" font-weight="400" font-family="Sans Serif" font-style="normal" fill-opacity="0" fill="#000000" stroke="none" font-size="31.75">
    <path vector-effect="non-scaling-stroke" d="M546,-972.5 C546,-961.454 537.046,-952.5 526,-952.5 C514.954,-952.5 506,-961.454 506,-972.5 C506,-983.546 514.954,-992.5 526,-992.5 C537.046,-992.5 546,-983.546 546,-972.5 " fill-rule="evenodd"/>
   </g>
   <g transform="matrix(1,0,0,1,730.193,1169.16)" font-weight="400" font-family="Sans Serif" font-style="normal" fill-opacity="0" fill="#000000" stroke="none" font-size="31.75">
    <path vector-effect="non-scaling-stroke" d="M-255.7,-136.5 C-255.7,-125.454 -264.654,-116.5 -275.7,-116.5 C-286.746,-116.5 -295.7,-125.454 -295.7,-136.5 C-295.7,-147.546 -286.746,-156.5 -275.7,-156.5 C-264.654,-156.5 -255.7,-147.546 -255.7,-136.5 " fill-rule="evenodd"/>
   </g>
   <g transform="matrix(1,0,0,1,730.193,1169.16)" font-weight="400" font-family="Sans Serif" font-style="normal" fill-opacity="0" fill="#000000" stroke="none" font-size="31.75">
    <path vector-effect="non-scaling-stroke" d="M-506,-972.5 C-506,-961.454 -514.954,-952.5 -526,-952.5 C-537.046,-952.5 -546,-961.454 -546,-972.5 C-546,-983.546 -537.046,-992.5 -526,-992.5 C-514.954,-992.5 -506,-983.546 -506,-972.5 " fill-rule="evenodd"/>
   </g>
   <g transform="matrix(1,0,0,1,730.193,1169.16)" font-weight="400" font-family="Sans Serif" font-style="normal" fill-opacity="0" fill="#000000" stroke="none" font-size="31.75">
    <path vector-effect="non-scaling-stroke" d="M546,972.5 C546,983.546 537.046,992.5 526,992.5 C514.954,992.5 506,983.546 506,972.5 C506,961.454 514.954,952.5 526,952.5 C537.046,952.5 546,961.454 546,972.5 " fill-rule="evenodd"/>
   </g>
   <g transform="matrix(1,0,0,1,730.193,1169.16)" font-weight="400" font-family="Sans Serif" font-style="normal" fill-opacity="0" fill="#000000" stroke="none" font-size="31.75">
    <path vector-effect="non-scaling-stroke" d="M607.5,-1037.8 C607.5,-1029.52 600.784,-1022.8 592.5,-1022.8 C584.216,-1022.8 577.5,-1029.52 577.5,-1037.8 C577.5,-1046.08 584.216,-1052.8 592.5,-1052.8 C600.784,-1052.8 607.5,-1046.08 607.5,-1037.8 " fill-rule="evenodd"/>
   </g>
   <g transform="matrix(1,0,0,1,730.193,1169.16)" font-weight="400" font-family="Sans Serif" font-style="normal" fill-opacity="0" fill="#000000" stroke="none" font-size="31.75">
    <path vector-effect="non-scaling-stroke" d="M-577.5,-1037.8 C-577.5,-1029.52 -584.216,-1022.8 -592.5,-1022.8 C-600.784,-1022.8 -607.5,-1029.52 -607.5,-1037.8 C-607.5,-1046.08 -600.784,-1052.8 -592.5,-1052.8 C-584.216,-1052.8 -577.5,-1046.08 -577.5,-1037.8 " fill-rule="evenodd"/>
   </g>
   <g transform="matrix(1,0,0,1,730.193,1169.16)" font-weight="400" font-family="Sans Serif" font-style="normal" fill-opacity="0" fill="#000000" stroke="none" font-size="31.75">
    <path vector-effect="non-scaling-stroke" d="M607.5,1037.8 C607.5,1046.08 600.784,1052.8 592.5,1052.8 C584.216,1052.8 577.5,1046.08 577.5,1037.8 C577.5,1029.52 584.216,1022.8 592.5,1022.8 C600.784,1022.8 607.5,1029.52 607.5,1037.8 " fill-rule="evenodd"/>
   </g>
   <g transform="matrix(1,0,0,1,730.193,1169.16)" font-weight="400" font-family="Sans Serif" font-style="normal" fill-opacity="0" fill="#000000" stroke="none" font-size="31.75">
    <path vector-effect="non-scaling-stroke" d="M-577.5,1037.8 C-577.5,1046.08 -584.216,1052.8 -592.5,1052.8 C-600.784,1052.8 -607.5,1046.08 -607.5,1037.8 C-607.5,1029.52 -600.784,1022.8 -592.5,1022.8 C-584.216,1022.8 -577.5,1029.52 -577.5,1037.8 " fill-rule="evenodd"/>
   </g>
   <g transform="matrix(1,0,0,1,730.193,1169.16)" font-weight="400" stroke-linecap="round" font-family="Sans Serif" font-style="normal" stroke-width="2.5" stroke-linejoin="bevel" stroke-opacity="1" fill="none" stroke="#ff0000" font-size="31.75">
    <path vector-effect="none" d="M-658.4,-1037.3 C-658.4,-1074.58 -628.179,-1104.8 -590.9,-1104.8 " fill-rule="evenodd"/>
   </g>
   <g transform="matrix(1,0,0,1,730.193,1169.16)" font-weight="400" stroke-linecap="round" font-family="Sans Serif" font-style="normal" stroke-width="2.5" stroke-linejoin="bevel" stroke-opacity="1" fill="none" stroke="#ff0000" font-size="31.75">
    <path vector-effect="none" d="M-658.4,-1037.3 L-658.4,1037.3" fill-rule="evenodd"/>
   </g>
   <g transform="matrix(1,0,0,1,730.193,1169.16)" font-weight="400" stroke-linecap="round" font-family="Sans Serif" font-style="normal" stroke-width="2.5" stroke-linejoin="bevel" stroke-opacity="1" fill="none" stroke="#ff0000" font-size="31.75">
    <path vector-effect="none" d="M590.9,-1104.8 L-590.9,-1104.8" fill-rule="evenodd"/>
   </g>
   <g transform="matrix(1,0,0,1,730.193,1169.16)" font-weight="400" stroke-linecap="round" font-family="Sans Serif" font-style="normal" stroke-width="2.5" stroke-linejoin="bevel" stroke-opacity="1" fill="none" stroke="#ff0000" font-size="31.75">
    <path vector-effect="none" d="M-590.9,1104.8 C-628.179,1104.8 -658.4,1074.58 -658.4,1037.3 " fill-rule="evenodd"/>
   </g>
   <g transform="matrix(1,0,0,1,730.193,1169.16)" font-weight="400" stroke-linecap="round" font-family="Sans Serif" font-style="normal" stroke-width="2.5" stroke-linejoin="bevel" stroke-opacity="1" fill="none" stroke="#ff0000" font-size="31.75">
    <path vector-effect="none" d="M590.9,-1104.8 C628.179,-1104.8 658.4,-1074.58 658.4,-1037.3 " fill-rule="evenodd"/>
   </g>
   <g transform="matrix(1,0,0,1,730.193,1169.16)" font-weight="400" stroke-linecap="round" font-family="Sans Serif" font-style="normal" stroke-width="2.5" stroke-linejoin="bevel" stroke-opacity="1" fill="none" stroke="#ff0000" font-size="31.75">
    <path vector-effect="none" d="M-590.9,1104.8 L590.9,1104.8" fill-rule="evenodd"/>
   </g>
   <g transform="matrix(1,0,0,1,730.193,1169.16)" font-weight="400" stroke-linecap="round" font-family="Sans Serif" font-style="normal" stroke-width="2.5" stroke-linejoin="bevel" stroke-opacity="1" fill="none" stroke="#ff0000" font-size="31.75">
    <path vector-effect="none" d="M658.4,1037.3 L658.4,-1037.3" fill-rule="evenodd"/>
   </g>
   <g transform="matrix(1,0,0,1,730.193,1169.16)" font-weight="400" stroke-linecap="round" font-family="Sans Serif" font-style="normal" stroke-width="2.5" stroke-linejoin="bevel" stroke-opacity="1" fill="none" stroke="#ff0000" font-size="31.75">
    <path vector-effect="none" d="M658.4,1037.3 C658.4,1074.58 628.179,1104.8 590.9,1104.8 " fill-rule="evenodd"/>
   </g>
   <g transform="matrix(1,0,0,1,730.193,1169.16)" font-weight="400" stroke-linecap="round" font-family="Sans Serif" font-style="normal" stroke-width="2.5" stroke-linejoin="bevel" stroke-opacity="1" fill="none" stroke="#ff0000" font-size="31.75">
    <path vector-effect="none" d="M607.5,-1037.8 C607.5,-1029.52 600.784,-1022.8 592.5,-1022.8 C584.216,-1022.8 577.5,-1029.52 577.5,-1037.8 C577.5,-1046.08 584.216,-1052.8 592.5,-1052.8 C600.784,-1052.8 607.5,-1046.08 607.5,-1037.8 " fill-rule="evenodd"/>
   </g>
   <g transform="matrix(1,0,0,1,730.193,1169.16)" font-weight="400" stroke-linecap="round" font-family="Sans Serif" font-style="normal" stroke-width="2.5" stroke-linejoin="bevel" stroke-opacity="1" fill="none" stroke="#ff0000" font-size="31.75">
    <path vector-effect="none" d="M546,-972.5 C546,-961.454 537.046,-952.5 526,-952.5 C514.954,-952.5 506,-961.454 506,-972.5 C506,-983.546 514.954,-992.5 526,-992.5 C537.046,-992.5 546,-983.546 546,-972.5 " fill-rule="evenodd"/>
   </g>
   <g transform="matrix(1,0,0,1,730.193,1169.16)" font-weight="400" stroke-linecap="round" font-family="Sans Serif" font-style="normal" stroke-width="2.5" stroke-linejoin="bevel" stroke-opacity="1" fill="none" stroke="#ff0000" font-size="31.75">
    <path vector-effect="none" d="M607.5,1037.8 C607.5,1046.08 600.784,1052.8 592.5,1052.8 C584.216,1052.8 577.5,1046.08 577.5,1037.8 C577.5,1029.52 584.216,1022.8 592.5,1022.8 C600.784,1022.8 607.5,1029.52 607.5,1037.8 " fill-rule="evenodd"/>
   </g>
   <g transform="matrix(1,0,0,1,730.193,1169.16)" font-weight="400" stroke-linecap="round" font-family="Sans Serif" font-style="normal" stroke-width="2.5" stroke-linejoin="bevel" stroke-opacity="1" fill="none" stroke="#ff0000" font-size="31.75">
    <path vector-effect="none" d="M546,972.5 C546,983.546 537.046,992.5 526,992.5 C514.954,992.5 506,983.546 506,972.5 C506,961.454 514.954,952.5 526,952.5 C537.046,952.5 546,961.454 546,972.5 " fill-rule="evenodd"/>
   </g>
   <g transform="matrix(1,0,0,1,730.193,1169.16)" font-weight="400" stroke-linecap="round" font-family="Sans Serif" font-style="normal" stroke-width="2.5" stroke-linejoin="bevel" stroke-opacity="1" fill="none" stroke="#ff0000" font-size="31.75">
    <path vector-effect="none" d="M-289,-200 L-189,-200" fill-rule="evenodd"/>
   </g>
   <g transform="matrix(1,0,0,1,730.193,1169.16)" font-weight="400" stroke-linecap="round" font-family="Sans Serif" font-style="normal" stroke-width="2.5" stroke-linejoin="bevel" stroke-opacity="1" fill="none" stroke="#ff0000" font-size="31.75">
    <path vector-effect="none" d="M-289,-285 L-289,-200" fill-rule="evenodd"/>
   </g>
   <g transform="matrix(1,0,0,1,730.193,1169.16)" font-weight="400" stroke-linecap="round" font-family="Sans Serif" font-style="normal" stroke-width="2.5" stroke-linejoin="bevel" stroke-opacity="1" fill="none" stroke="#ff0000" font-size="31.75">
    <path vector-effect="none" d="M-189,-285 L-289,-285" fill-rule="evenodd"/>
   </g>
   <g transform="matrix(1,0,0,1,730.193,1169.16)" font-weight="400" stroke-linecap="round" font-family="Sans Serif" font-style="normal" stroke-width="2.5" stroke-linejoin="bevel" stroke-opacity="1" fill="none" stroke="#ff0000" font-size="31.75">
    <path vector-effect="none" d="M-189,-200 L-189,-285" fill-rule="evenodd"/>
   </g>
   <g transform="matrix(1,0,0,1,730.193,1169.16)" font-weight="400" stroke-linecap="round" font-family="Sans Serif" font-style="normal" stroke-width="2.5" stroke-linejoin="bevel" stroke-opacity="1" fill="none" stroke="#ff0000" font-size="31.75">
    <path vector-effect="none" d="M-255.7,-136.5 C-255.7,-125.454 -264.654,-116.5 -275.7,-116.5 C-286.746,-116.5 -295.7,-125.454 -295.7,-136.5 C-295.7,-147.546 -286.746,-156.5 -275.7,-156.5 C-264.654,-156.5 -255.7,-147.546 -255.7,-136.5 " fill-rule="evenodd"/>
   </g>
   <g transform="matrix(1,0,0,1,730.193,1169.16)" font-weight="400" stroke-linecap="round" font-family="Sans Serif" font-style="normal" stroke-width="2.5" stroke-linejoin="bevel" stroke-opacity="1" fill="none" stroke="#ff0000" font-size="31.75">
    <path vector-effect="none" d="M-506,-972.5 C-506,-961.454 -514.954,-952.5 -526,-952.5 C-537.046,-952.5 -546,-961.454 -546,-972.5 C-546,-983.546 -537.046,-992.5 -526,-992.5 C-514.954,-992.5 -506,-983.546 -506,-972.5 " fill-rule="evenodd"/>
   </g>
   <g transform="matrix(1,0,0,1,730.193,1169.16)" font-weight="400" stroke-linecap="round" font-family="Sans Serif" font-style="normal" stroke-width="2.5" stroke-linejoin="bevel" stroke-opacity="1" fill="none" stroke="#ff0000" font-size="31.75">
    <path vector-effect="none" d="M-577.5,-1037.8 C-577.5,-1029.52 -584.216,-1022.8 -592.5,-1022.8 C-600.784,-1022.8 -607.5,-1029.52 -607.5,-1037.8 C-607.5,-1046.08 -600.784,-1052.8 -592.5,-1052.8 C-584.216,-1052.8 -577.5,-1046.08 -577.5,-1037.8 " fill-rule="evenodd"/>
   </g>
   <g transform="matrix(1,0,0,1,730.193,1169.16)" font-weight="400" stroke-linecap="round" font-family="Sans Serif" font-style="normal" stroke-width="2.5" stroke-linejoin="bevel" stroke-opacity="1" fill="none" stroke="#ff0000" font-size="31.75">
    <path vector-effect="none" d="M-506,972.5 C-506,983.546 -514.954,992.5 -526,992.5 C-537.046,992.5 -546,983.546 -546,972.5 C-546,961.454 -537.046,952.5 -526,952.5 C-514.954,952.5 -506,961.454 -506,972.5 " fill-rule="evenodd"/>
   </g>
   <g transform="matrix(1,0,0,1,730.193,1169.16)" font-weight="400" stroke-linecap="round" font-family="Sans Serif" font-style="normal" stroke-width="2.5" stroke-linejoin="bevel" stroke-opacity="1" fill="none" stroke="#ff0000" font-size="31.75">
    <path vector-effect="none" d="M-577.5,1037.8 C-577.5,1046.08 -584.216,1052.8 -592.5,1052.8 C-600.784,1052.8 -607.5,1046.08 -607.5,1037.8 C-607.5,1029.52 -600.784,1022.8 -592.5,1022.8 C-584.216,1022.8 -577.5,1029.52 -577.5,1037.8 " fill-rule="evenodd"/>
   </g>
  </g>
 </g>
</svg>
